HIERARCHY
ROOT pelvis
{
  OFFSET 0 100 0
  CHANNELS 6 Xposition Yposition Zposition Zrotation Xrotation Yrotation
  JOINT pelvis_right_femur
  {
    OFFSET -10.78128 -3.44521 -0.5502486
    CHANNELS 3 Zrotation Xrotation Yrotation
    JOINT right_femur_tibia
    {
      OFFSET -0.8047443 -44.0398 -0.1307829
      CHANNELS 3 Zrotation Xrotation Yrotation
      JOINT right_tibia_foot
      {
        OFFSET 3.006224 -47.83518 -5
        CHANNELS 3 Zrotation Xrotation Yrotation
        End Site
        {
          OFFSET 0 -5 15
        }
      }
    }
  }
  JOINT pelvis_left_femur
  {
    OFFSET 10.78128 -3.44521 -0.5502486
    CHANNELS 3 Zrotation Xrotation Yrotation
    JOINT left_femur_tibia
    {
      OFFSET 0.8047443 -44.0398 -0.1307829
      CHANNELS 3 Zrotation Xrotation Yrotation
      JOINT left_tibia_foot
      {
        OFFSET -4.370144 -48.10324 -4.275266
        CHANNELS 3 Zrotation Xrotation Yrotation
        End Site
        {
          OFFSET 0 -5 15
        }
      }
    }
  }
  JOINT pelvis_spine1
  {
    OFFSET 0 6.468898 -3.129235
    CHANNELS 3 Zrotation Xrotation Yrotation
    JOINT spine1
    {
      OFFSET 0 23.15396 4.99043
      CHANNELS 3 Zrotation Xrotation Yrotation
      JOINT spine2
      {
        OFFSET 0 20.79997 -5.064912
        CHANNELS 3 Zrotation Xrotation Yrotation
        JOINT neck
        {
          OFFSET 0 14.38658 9.616178
          CHANNELS 3 Zrotation Xrotation Yrotation
          End Site
          {
            OFFSET 0 20 0
          }
        }
      }
      JOINT right_manubrium
      {
        OFFSET -5.722621 16.35077 3.967754
        CHANNELS 3 Zrotation Xrotation Yrotation
        JOINT right_clavicle
        {
          OFFSET -13.16364 1.694482 -4.693211
          CHANNELS 3 Zrotation Xrotation Yrotation
          JOINT right_humerus
          {
            OFFSET -28.5034 -0.3100689 -2.792744
            CHANNELS 3 Zrotation Xrotation Yrotation
            JOINT right_radius
            {
              OFFSET -25.15693 0.02248979 -1.271978
              CHANNELS 3 Zrotation Xrotation Yrotation
              End Site
              {
                OFFSET -15 0 0
              }
            }
          }
        }
      }
      JOINT left_manubrium
      {
        OFFSET 5.722621 16.35077 3.967754
        CHANNELS 3 Zrotation Xrotation Yrotation
        JOINT left_clavicle
        {
          OFFSET 13.16364 1.694482 -4.693211
          CHANNELS 3 Zrotation Xrotation Yrotation
          JOINT left_humerus
          {
            OFFSET 29.39168 -1.063119 -2.237045
            CHANNELS 3 Zrotation Xrotation Yrotation
            JOINT left_radius
            {
              OFFSET 24.59957 -0.9528479 0.9047498
              CHANNELS 3 Zrotation Xrotation Yrotation
              End Site
              {
                OFFSET 15 -0 -0
              }
            }
          }
        }
      }
    }
  }
}
MOTION
Frames: 9
Frame Time: 0.0416666666667
49.01907 99.22358 272.7395 3.676786 -9.591871 3.217859 -2.012832 9.287663 4.918696 -0 39.46948 -0 5.536018 -9.835179 -3.958088 -5.494758 -6.920629 -9.139335 -0 22.7705 -0 -6.900132 -10.66398 17.49699 -2.505657 -1.044049 6.96086 -1.69159 8.763294 -3.209336 2.226459 23.05445 5.762112 1.247039 -14.84149 8.483606 0.9590507 -17.93934 9.861986 85.65192 21.49879 -11.82843 -0 0 20.65084 -24.40085 13.51881 11.8885 4.625923 -14.21248 -3.879872 -89.95503 25.35872 18.97836 0 0 -11.60252 -3.444702 6.667684 16.85541
50.1601 99.70407 278.8523 3.771347 -9.56368 4.384745 -2.075981 4.612633 4.211138 -0 39.78995 -0 4.915228 -9.310742 -4.837159 -5.848418 -2.403838 -9.566519 -0 21.76714 -0 -6.805862 -11.77806 16.87673 -2.646455 -0.9277722 6.063155 -1.446822 8.56345 -3.794671 2.265243 23.3092 5.792365 1.089079 -14.69388 8.735593 0.9066048 -16.99619 9.54271 86.7647 21.74915 -13.22494 -0 0 18.98669 -23.63165 13.45691 11.36258 4.757972 -14.89194 -4.083362 -88.30155 25.74472 16.09523 0 0 -13.04874 -2.84892 7.094609 16.09498
51.25316 100.0291 284.8208 3.822149 -9.453293 5.631881 -2.058442 -0.3232177 3.567333 -0 38.47065 -0 4.160153 -9.031829 -5.674777 -6.007117 2.099674 -9.883212 -0 20.77749 -0 -6.760628 -12.90807 16.2324 -2.73509 -0.7606173 5.1234 -1.156459 8.341638 -4.437284 2.320479 23.55022 5.793896 0.9490265 -14.56 8.957603 0.7752434 -16.03798 9.232952 87.90347 22.0178 -14.69665 -0 0 17.26971 -22.7884 13.3751 10.79167 4.955886 -15.70444 -4.279816 -86.56023 26.04424 12.93955 0 0 -14.78173 -2.148419 7.57914 15.17185
52.28608 100.1398 290.6925 3.837833 -9.272684 6.892924 -1.972217 -5.100269 3.017661 -0 35.86449 -0 3.293506 -8.97524 -6.442562 -6.00831 6.369463 -10.10765 -0 20.06243 -0 -6.775698 -13.97405 15.60624 -2.779439 -0.5816244 4.225902 -0.8418383 8.100788 -5.063891 2.397934 23.76112 5.75206 0.8354556 -14.46855 9.12999 0.5943827 -15.09388 8.948972 89.00467 22.28061 -16.16013 -0 0 15.51468 -21.88456 13.26536 10.1681 5.195747 -16.57834 -4.432055 -84.85925 26.24208 9.738057 0 0 -16.64595 -1.3747 8.102955 14.13469
53.25075 100.0309 296.5383 3.827607 -9.040855 8.098103 -1.819397 -9.342901 2.583105 -0 32.3859 -0 2.340594 -9.101981 -7.120968 -5.893924 10.22207 -10.25401 -0 19.88562 -0 -6.854465 -14.89887 15.0395 -2.790451 -0.426742 3.444688 -0.5222342 7.84922 -5.6093 2.501021 23.93124 5.656043 0.7551575 -14.44248 9.236846 0.3968796 -14.18843 8.704166 90.01322 22.52279 -17.54305 -0 0 13.72945 -20.93402 13.12202 9.486713 5.452585 -17.44544 -4.509913 -83.31181 26.34558 6.703749 0 0 -18.48968 -0.5604281 8.648741 13.0342
54.14436 99.73609 302.4334 3.794081 -8.788468 9.180027 -1.589473 -12.79669 2.279597 -0 28.44254 -0 1.328272 -9.368603 -7.698215 -5.69783 13.51717 -10.3322 -0 20.42586 -0 -6.988036 -15.61637 14.57279 -2.774598 -0.3143295 2.820974 -0.2125201 7.601102 -6.035403 2.627669 24.06199 5.504427 0.7101385 -14.4897 9.271933 0.2080628 -13.34857 8.505535 90.89001 22.74 -18.78294 -0 0 11.9422 -19.9565 12.94233 8.758439 5.702784 -18.24785 -4.501296 -82.00265 26.37907 4.005139 0 0 -20.17864 0.261449 9.200148 11.92109
54.96998 99.31746 308.4368 3.734233 -8.567728 10.08084 -1.258047 -15.27762 2.128091 -0 24.48496 -0 0.287828 -9.72731 -8.162042 -5.443039 16.10619 -10.34835 -0 21.81256 -0 -7.1543 -16.05016 14.26212 -2.728982 -0.2429518 2.366093 0.07398888 7.380038 -6.32784 2.769164 24.1704 5.305552 0.6977178 -14.60265 9.237761 0.04713435 -12.61547 8.355238 91.60294 22.93595 -19.80642 -0 0 10.22023 -18.98209 12.72598 8.017085 5.917686 -18.92473 -4.412145 -81.01183 26.37762 1.80071 0 0 -21.56293 1.04997 9.739734 10.85702
55.7358 98.86136 314.5754 3.6437 -8.450164 10.75716 -0.7926112 -16.62343 2.154451 -0 21.01945 -0 -0.7445936 -10.12717 -8.495057 -5.143803 17.80938 -10.30488 -0 24.15952 -0 -7.321713 -16.10678 14.18236 -2.64218 -0.1966155 2.072634 0.3235785 7.217972 -6.486625 2.911763 24.28619 5.074557 0.7121215 -14.76301 9.142343 -0.0699025 -12.04567 8.252783 92.11972 23.11944 -20.52222 -0 0 8.666241 -18.05012 12.475 7.315403 6.06148 -19.40705 -4.261137 -80.42705 26.38215 0.2593486 0 0 -22.46496 1.753996 10.2496 9.917286
56.45197 98.47084 320.8424 3.520552 -8.496566 11.18053 -0.1771777 -16.7358 2.36641 -0 18.4567 -0 -1.735775 -10.52687 -8.681604 -4.809589 18.48159 -10.20235 -0 27.49805 -0 -7.461667 -15.7183 14.39523 -2.503668 -0.1553154 1.924329 0.5249326 7.14183 -6.519895 3.042038 24.43747 4.827868 0.7467066 -14.95055 8.996277 -0.1336119 -11.68972 8.195757 92.41571 23.29996 -20.85278 -0 0 7.380192 -17.1994 12.19404 6.706846 6.104364 -19.64089 -4.070806 -80.31289 26.42616 -0.4909215 0 0 -22.73979 2.327729 10.71669 9.167269
